:SAMPLES-PER-SECOND 30
:FULLY-SPECIFIED
:DEGREES
407
root  -5.77819 39.0517 12.631 -4.53535 -52.0751 2.71857
RightUpLeg  11.9025 0.628583 1.61515
RightLeg  34.8929 12.0001 8.62197
RightFoot  43.7085 -9.80781 19.3279
RightToes  -1.33073e-015 0 -3.6325e-017
Spine  -5.50597 28.5501 38.6545
Spine1  -12.1883 27.6772 -35.0148
HEad  10.8468 -67.5774 -4.59012
LeftShoulder1  3.54081 -9.36693 -21.1355
LeftArm  -72.729 -27.141 -8.33825
LeftForeArm  147.194 -78.5961 -127.159
LeftHand  -0.246645 0.021 5.37786
RightShoulder  1.73883 8.76165 6.51435
RightArm  127.068 50.1507 171.785
RightForeArm  62.1288 58.786 13.0002
RightHand  -0.24729 -0.0210522 -5.37781
LeftUpLeg  -10.0361 -6.96563 -11.5583
LeftLeg  70.6045 -75.9857 -71.8522
LeftFoot  8.18417 3.48392 -20.3531
LeftToes  5.09284e-011 3.02203e-011 3.83118e-011
408
root  -5.80903 39.0604 12.6133 -3.97112 -50.3317 2.2695
RightUpLeg  12.2468 -0.408847 2.0573
RightLeg  34.0717 12.4165 8.65786
RightFoot  43.4404 -9.90632 19.6191
RightToes  -1.33073e-015 0 -3.6325e-017
Spine  -5.60075 28.8786 37.9728
Spine1  -12.3766 27.9764 -35.3288
HEad  13.0905 -67.8174 -6.77255
LeftShoulder1  3.09126 -8.43902 -19.3928
LeftArm  -73.4137 -25.8861 -8.22628
LeftForeArm  163.986 -76.5646 -138.98
LeftHand  -0.246645 0.021 5.37786
RightShoulder  1.72314 8.89937 6.19297
RightArm  124.578 50.4065 171.232
RightForeArm  63.1508 61.5894 14.7545
RightHand  -0.24729 -0.0210522 -5.37781
LeftUpLeg  -10.0726 -6.75003 -11.4363
LeftLeg  72.9707 -76.2539 -74.3019
LeftFoot  8.3648 3.57894 -20.7042
LeftToes  5.09284e-011 3.02203e-011 3.83118e-011
409
root  -5.85896 39.0574 12.5883 -3.62016 -49.0283 2.06287
RightUpLeg  12.5336 -1.42858 2.18337
RightLeg  33.4503 12.8235 8.73943
RightFoot  43.0703 -9.99469 19.9344
RightToes  -1.33073e-015 0 -3.6325e-017
Spine  -5.73633 29.0888 37.229
Spine1  -12.4194 28.2013 -35.5406
HEad  14.4642 -68.0955 -8.0574
LeftShoulder1  2.70369 -7.671 -17.5787
LeftArm  -74.6638 -25.132 -8.36413
LeftForeArm  171.805 -74.6418 -145.51
LeftHand  -0.246645 0.021 5.37786
RightShoulder  1.72954 8.93749 6.20328
RightArm  122.2 50.6326 170.499
RightForeArm  63.431 63.5189 16.2299
RightHand  -0.24729 -0.0210522 -5.37781
LeftUpLeg  -10.144 -6.71998 -11.3696
LeftLeg  74.3071 -76.3519 -75.676
LeftFoot  8.43689 3.68718 -21.2341
LeftToes  5.09284e-011 3.02203e-011 3.83118e-011
410
root  -5.92578 39.0584 12.564 -3.28566 -48.2142 1.89372
RightUpLeg  12.6725 -2.27167 2.29604
RightLeg  32.9752 12.8656 8.61474
RightFoot  42.9906 -10.0028 19.9823
RightToes  -1.33073e-015 0 -3.6325e-017
Spine  -6.18111 29.1599 36.5281
Spine1  -11.9819 28.3416 -35.2722
HEad  15.0035 -68.2018 -8.60694
LeftShoulder1  2.4901 -7.25455 -16.4378
LeftArm  -75.2964 -24.4977 -7.83396
LeftForeArm  177.993 -73.2335 -149.357
LeftHand  -0.246645 0.021 5.37786
RightShoulder  1.72295 8.9111 6.17667
RightArm  119.765 50.9129 169.576
RightForeArm  64.4441 65.17 17.599
RightHand  -0.24729 -0.0210522 -5.37781
LeftUpLeg  -10.2443 -6.81374 -11.2341
LeftLeg  74.4075 -76.3785 -75.7683
LeftFoot  8.40303 3.7731 -21.7473
LeftToes  5.09284e-011 3.02203e-011 3.83118e-011
411
root  -6.00252 39.075 12.5315 -2.94695 -47.8624 1.74196
RightUpLeg  12.634 -2.92676 2.44361
RightLeg  32.6349 12.4533 8.23262
RightFoot  43.2341 -9.89301 19.6755
RightToes  -1.33073e-015 0 -3.6325e-017
Spine  -6.82602 29.1285 35.7382
Spine1  -11.2787 28.381 -34.4005
HEad  15.8238 -68.3098 -9.41134
LeftShoulder1  2.38243 -7.03557 -15.8441
LeftArm  -75.5185 -24.0375 -7.33298
LeftForeArm  -178.428 -72.1163 -151.797
LeftHand  -0.246645 0.021 5.37786
RightShoulder  1.67634 8.88828 5.7809
RightArm  117.752 51.2406 168.905
RightForeArm  65.5465 66.3471 18.6579
RightHand  -0.24729 -0.0210522 -5.37781
LeftUpLeg  -10.3658 -6.81073 -11.0245
LeftLeg  74.2493 -76.4503 -75.6064
LeftFoot  8.3626 3.80214 -21.952
LeftToes  5.09284e-011 3.02203e-011 3.83118e-011
412
root  -6.08252 39.098 12.4842 -2.70203 -47.9313 1.7608
RightUpLeg  12.4432 -3.33419 2.46838
RightLeg  32.4739 11.8443 7.78075
RightFoot  43.4403 -9.74596 19.3153
RightToes  -1.33073e-015 0 -3.6325e-017
Spine  -7.29773 28.9659 34.904
Spine1  -10.8424 28.238 -33.5034
HEad  17.1247 -68.4998 -10.5617
LeftShoulder1  2.25681 -6.75434 -15.1808
LeftArm  -75.6653 -23.9869 -7.5744
LeftForeArm  -177.584 -71.4452 -152.953
LeftHand  -0.246645 0.021 5.37786
RightShoulder  1.62692 8.87012 5.35205
RightArm  116.338 51.449 168.546
RightForeArm  65.4571 66.8429 19.2035
RightHand  -0.24729 -0.0210522 -5.37781
LeftUpLeg  -10.5512 -6.66395 -10.8589
LeftLeg  74.1439 -76.5537 -75.5149
LeftFoot  8.34081 3.7751 -21.8247
LeftToes  5.09284e-011 3.02203e-011 3.83118e-011
413
root  -6.15992 39.1156 12.4304 -2.60435 -48.3908 1.96182
RightUpLeg  12.1972 -3.35134 2.3566
RightLeg  32.4596 11.3634 7.45854
RightFoot  43.4923 -9.68735 19.1843
RightToes  -1.33073e-015 0 -3.6325e-017
Spine  -7.36348 28.6252 34.369
Spine1  -10.8094 27.9031 -33.1631
HEad  18.1304 -68.6158 -11.3404
LeftShoulder1  2.12564 -6.48351 -14.3981
LeftArm  -75.6607 -24.2598 -7.92794
LeftForeArm  -177.286 -71.3933 -153.066
LeftHand  -0.246645 0.021 5.37786
RightShoulder  1.63734 8.85519 5.4653
RightArm  115.161 51.4808 168.036
RightForeArm  64.7399 66.9334 19.3835
RightHand  -0.24729 -0.0210522 -5.37781
LeftUpLeg  -10.7746 -6.50494 -10.7725
LeftLeg  73.1938 -76.5578 -74.5495
LeftFoot  8.32822 3.70763 -21.4615
LeftToes  5.09284e-011 3.02203e-011 3.83118e-011
414
root  -6.23011 39.1286 12.3791 -2.6171 -49.1319 2.18962
RightUpLeg  11.9811 -3.01204 2.23355
RightLeg  32.508 11.1089 7.30346
RightFoot  43.6213 -9.75166 19.2558
RightToes  -1.33073e-015 0 -3.6325e-017
Spine  -7.23946 28.1721 34.1963
Spine1  -10.7403 27.5088 -33.093
HEad  18.5314 -68.6144 -11.5519
LeftShoulder1  2.08133 -6.47385 -13.9322
LeftArm  -75.1755 -24.7014 -7.81617
LeftForeArm  -177.086 -71.8636 -152.372
LeftHand  -0.246645 0.021 5.37786
RightShoulder  1.70476 8.89126 6.03584
RightArm  114.069 51.5263 167.234
RightForeArm  64.3233 66.7705 19.2496
RightHand  -0.24729 -0.0210522 -5.37781
LeftUpLeg  -10.946 -6.41773 -10.6886
LeftLeg  70.9288 -76.3899 -72.2129
LeftFoot  8.33898 3.62286 -20.9764
LeftToes  5.09284e-011 3.02203e-011 3.83118e-011
415
root  -6.29279 39.1405 12.3295 -2.67958 -49.9594 2.37216
RightUpLeg  11.7757 -2.52248 2.14806
RightLeg  32.6027 10.978 7.24246
RightFoot  43.9061 -9.89114 19.4076
RightToes  -1.33073e-015 0 -3.6325e-017
Spine  -7.38029 27.6912 33.9808
Spine1  -10.2102 27.1341 -32.5528
HEad  18.6468 -68.5574 -11.5471
LeftShoulder1  2.12005 -6.68011 -13.885
LeftArm  -74.2322 -25.3053 -7.81156
LeftForeArm  -178.227 -72.6409 -150.947
LeftHand  -0.246645 0.021 5.37786
RightShoulder  1.76121 8.98026 6.43583
RightArm  113.177 51.7186 166.474
RightForeArm  63.8855 66.2574 18.7459
RightHand  -0.24729 -0.0210522 -5.37781
LeftUpLeg  -11.0542 -6.42404 -10.5739
LeftLeg  68.0207 -76.0997 -69.198
LeftFoot  8.32942 3.54373 -20.5431
LeftToes  5.09284e-011 3.02203e-011 3.83118e-011
416
root  -6.35119 39.15 12.2806 -2.77383 -50.7495 2.5833
RightUpLeg  11.5347 -2.00949 2.04699
RightLeg  32.7587 10.8765 7.21711
RightFoot  44.1652 -10.0472 19.5983
RightToes  -1.33073e-015 0 -3.6325e-017
Spine  -7.91576 27.1531 33.4492
Spine1  -9.33285 26.677 -31.4081
HEad  18.7506 -68.4014 -11.5295
LeftShoulder1  2.15768 -6.82311 -13.9692
LeftArm  -73.1694 -26.0326 -8.42694
LeftForeArm  179.608 -73.5242 -149.043
LeftHand  -0.246645 0.021 5.37786
RightShoulder  1.7673 9.03821 6.41668
RightArm  112.365 51.9137 165.891
RightForeArm  63.1353 65.549 18.1003
RightHand  -0.24729 -0.0210522 -5.37781
LeftUpLeg  -11.1615 -6.53174 -10.4806
LeftLeg  65.1344 -75.7599 -66.1945
LeftFoot  8.22828 3.46251 -20.1879
LeftToes  5.09284e-011 3.02203e-011 3.83118e-011
417
root  -6.40685 39.159 12.237 -2.92044 -51.5477 2.88596
RightUpLeg  11.2882 -1.48447 1.87921
RightLeg  32.9346 10.7853 7.20348
RightFoot  44.3137 -10.1562 19.7429
RightToes  -1.33073e-015 0 -3.6325e-017
Spine  -8.51136 26.5272 32.8051
Spine1  -8.57367 26.0722 -30.2416
HEad  19.1061 -68.1173 -11.6633
LeftShoulder1  2.16199 -6.83428 -13.9901
LeftArm  -72.1883 -26.7631 -9.21083
LeftForeArm  177.35 -74.444 -146.829
LeftHand  -0.246645 0.021 5.37786
RightShoulder  1.76104 9.02539 6.37666
RightArm  111.498 51.9602 165.296
RightForeArm  62.6454 64.9193 17.543
RightHand  -0.24729 -0.0210522 -5.37781
LeftUpLeg  -11.2751 -6.64215 -10.4511
LeftLeg  62.3461 -75.3971 -63.2896
LeftFoot  8.09895 3.34465 -19.6482
LeftToes  5.09284e-011 3.02203e-011 3.83118e-011
418
root  -6.45792 39.1739 12.2017 -3.1281 -52.4545 3.25465
RightUpLeg  11.0896 -0.982579 1.63435
RightLeg  33.0741 10.6681 7.16184
RightFoot  44.4514 -10.1634 19.7021
RightToes  -1.33073e-015 0 -3.6325e-017
Spine  -8.87853 25.9152 32.3309
Spine1  -8.15564 25.4528 -29.4862
HEad  19.9718 -67.8017 -12.1956
LeftShoulder1  2.16817 -6.89335 -13.925
LeftArm  -71.2344 -27.4502 -9.67934
LeftForeArm  174.204 -75.4685 -143.915
LeftHand  -0.246645 0.021 5.37786
RightShoulder  1.79495 9.01216 6.6987
RightArm  110.826 51.9621 164.645
RightForeArm  62.6234 64.2898 16.9711
RightHand  -0.24729 -0.0210522 -5.37781
LeftUpLeg  -11.3444 -6.62103 -10.4673
LeftLeg  59.5804 -75.0365 -60.4198
LeftFoot  8.07223 3.1822 -18.7489
LeftToes  5.09284e-011 3.02203e-011 3.83118e-011
419
root  -6.50262 39.197 12.1722 -3.35327 -53.4723 3.60803
RightUpLeg  10.9419 -0.567716 1.34801
RightLeg  33.1726 10.4677 7.05157
RightFoot  44.6309 -10.0608 19.4424
RightToes  -1.33073e-015 0 -3.6325e-017
Spine  -9.11851 25.4188 32.0493
Spine1  -7.87517 24.9483 -28.9821
HEad  21.1398 -67.4819 -13.0297
LeftShoulder1  2.18812 -7.06803 -13.7538
LeftArm  -70.1913 -28.1082 -10.0542
LeftForeArm  169.689 -76.4941 -140.297
LeftHand  -0.246645 0.021 5.37786
RightShoulder  1.86252 9.057 7.24692
RightArm  110.565 52.0903 164.094
RightForeArm  62.5312 63.4722 16.2766
RightHand  -0.24729 -0.0210522 -5.37781
LeftUpLeg  -11.3606 -6.55127 -10.4714
LeftLeg  56.7806 -74.6781 -57.5183
LeftFoot  8.10352 3.007 -17.7194
LeftToes  5.09284e-011 3.02203e-011 3.83118e-011
420
root  -6.54132 39.2247 12.1455 -3.51579 -54.5277 3.85042
RightUpLeg  10.8257 -0.240218 1.0988
RightLeg  33.2425 10.2019 6.88786
RightFoot  44.8163 -9.88672 19.0507
RightToes  -1.33073e-015 0 -3.6325e-017
Spine  -9.43922 25.015 31.8877
Spine1  -7.45387 24.5367 -28.4162
HEad  22.0568 -67.078 -13.7345
LeftShoulder1  2.18986 -7.19267 -13.5057
LeftArm  -69.0324 -28.7514 -10.6757
LeftForeArm  165.434 -77.2565 -136.98
LeftHand  -0.246645 0.021 5.37786
RightShoulder  1.90968 9.09205 7.62199
RightArm  110.507 52.3001 163.758
RightForeArm  62.2212 62.6001 15.6014
RightHand  -0.24729 -0.0210522 -5.37781
LeftUpLeg  -11.3719 -6.63629 -10.4042
LeftLeg  53.9345 -74.2377 -54.5356
LeftFoot  8.04016 2.8402 -16.8178
LeftToes  5.09284e-011 3.02203e-011 3.83118e-011
